# WaveFront *.obj file (generated by CINEMA 4D)

mtllib ./circle16.mtl

v 0 0 0
v 100 0 0
v 92.38795471191406 38.26834487915039 -0
v 70.71067810058594 70.71067810058594 -0
v 38.26834487915039 92.38795471191406 -0.00000000000001
v 0.00000000000001 100 -0.00000000000001
v -38.26834487915039 92.38795471191406 -0.00000000000001
v -70.71067810058594 70.71067810058594 -0
v -92.38795471191406 38.26834487915039 -0
v -100 0.00000000000001 -0
v -92.38795471191406 -38.26834487915039 0
v -70.71067810058594 -70.71067810058594 0
v -38.26834487915039 -92.38795471191406 0.00000000000001
v -0.00000000000002 -100 0.00000000000001
v 38.26834487915039 -92.38795471191406 0.00000000000001
v 70.71067810058594 -70.71067810058594 0
v 92.38795471191406 -38.26834487915039 0
# 17 vertices

vn 0 0 1
vn 0 0 1
vn -0 0 1
vn 0 0 0
vn 0 0 1
vn 0 0 1
vn 0 0 1
vn -0 0 1
vn 0 0 1
vn 0 0 1
# 10 normals

vt 1 0.5 0
vt 0.5 0.5 0
vt 0.96193969249725 0.69134175777435 0
vt 0 1 0
vt 0.85355341434479 0.85355341434479 0
vt 0.69134163856506 0.9619397521019 0
vt 0.5 1 0
vt 0.30865824222565 0.9619397521019 0
vt 0.14644661545753 0.85355341434479 0
vt 0.03806023299694 0.69134175777435 0
vt 0 0.5 0
vt 0.03806023299694 0.30865836143494 0
vt 0.14644661545753 0.14644658565521 0
vt 0.30865824222565 0.03806030750275 0
vt 0.5 0 0
vt 0.69134163856506 0.03806030750275 0
vt 0.85355341434479 0.14644658565521 0
vt 0.96193969249725 0.30865836143494 0
# 18 texture coordinates

o Disc
usemtl default
f 3/3/3 1/2/2 2/1/1
f 4/5/5 1/2/2 3/3/3
f 5/6/6 1/2/2 4/5/5
f 6/7/7 1/2/2 5/6/6
f 7/8/8 1/2/2 6/7/7
f 8/9/9 1/2/2 7/8/8
f 9/10/10 1/2/2 8/9/9
f 10/11/1 1/2/2 9/10/10
f 11/12/3 1/2/2 10/11/1
f 12/13/5 1/2/2 11/12/3
f 13/14/6 1/2/2 12/13/5
f 14/15/7 1/2/2 13/14/6
f 15/16/8 1/2/2 14/15/7
f 16/17/9 1/2/2 15/16/8
f 17/18/10 1/2/2 16/17/9
f 2/1/1 1/2/2 17/18/10

